<svg viewBox="0 0 800 800" xmlns="http://www.w3.org/2000/svg"><path d="M526.1320117510821,141.7079505661606 L526.1734863223847,128.12195482634365 M195.8374030653365,331.98080324125783 L195.7687382097491,318.3311817251866 M526.1320117510821,141.7079505661606 L195.8374030653365,331.98080324125783 M526.1734863223847,128.12195482634365 L195.7687382097491,318.3311817251866 M604.7703727335651,186.6899970145102 L611.6113380012541,181.86052642413927 M611.6113380012541,181.86052642413927 L616.6721799393071,176.3534257295923 M616.6721799393071,176.3534257295923 L619.7594981383412,170.38124628908804 M619.7594981383412,170.38124628908804 L620.756263983983,164.17409984295188 M620.756263983983,164.17409984295188 L619.6260608188425,157.9707380827927 M619.6260608188425,157.9707380827927 L616.4141953422883,152.00933993717774 M616.4141953422883,152.00933993717774 L611.2456896536266,146.51837754560154 M611.2456896536266,146.51837754560154 L604.3202191920537,141.70795056616066 M604.3202191920537,141.70795056616066 L595.9042964339133,137.76183288153658 M595.9042964339133,137.76183288153658 L586.3209430641448,134.8305966616564 M586.3209430641448,134.8305966616564 L575.9373738984378,133.02597145788775 M575.9373738984378,133.02597145788775 L565.1510151778717,132.41669882721288 M565.1510151778717,132.41669882721288 L554.3745095842502,133.02597359623076 M554.3745095842502,133.02597359623076 L544.0201182814845,134.83059612697565 M544.0201182814845,134.83059612697565 L534.4841525705156,137.76183127703115 M534.4841525705156,137.76183127703115 L526.1320117510821,141.7079505661606 M604.7703727335651,186.6899970145102 L604.8380677694123,173.0888529996405 M526.1734863223847,128.12195482634365 L534.5283875157725,124.17716759296746 M534.5283875157725,124.17716759296746 L544.0675072126743,121.24692224230864 M544.0675072126743,121.24692224230864 L554.4253256093301,119.44290922356532 M554.4253256093301,119.44290922356532 L565.2054007600951,118.8338402613457 M565.2054007600951,118.8338402613457 L575.9953355679421,119.44290708594457 M575.9953355679421,119.44290708594457 L586.382351168365,121.2469227768089 M586.382351168365,121.2469227768089 L595.9688899409848,124.17716919693117 M595.9688899409848,124.17716919693117 L604.3876153704202,128.12195482634365 M604.3876153704202,128.12195482634365 L611.3153983306703,132.93075868073385 M611.3153983306703,132.93075868073385 L616.4856372391436,138.41986924514242 M616.4856372391436,138.41986924514242 L619.6985893548584,144.37925802296724 M619.6985893548584,144.37925802296724 L620.8291897669696,150.58053008946445 M620.8291897669696,150.58053008946445 L619.8321152646939,156.78558682380213 M619.8321152646939,156.78558682380213 L616.74379311199,162.7557568437163 M616.74379311199,162.7557568437163 L611.6812894316348,168.26100563109242 M611.6812894316348,168.26100563109242 L604.8380677694123,173.0888529996405 M274.43328945882223,364.1456376385095 L265.928437239647,368.18426581191727 M265.928437239647,368.18426581191727 L256.232575014758,371.186262749914 M256.232575014758,371.186262749914 L245.71940363975966,373.0353176096669 M245.71940363975966,373.0353176096669 L234.79456388660003,373.6597429651931 M234.79456388660003,373.6597429651931 L223.87982478457312,373.03531980105083 M223.87982478457312,373.03531980105083 L213.39657010244306,371.18626220216663 M213.39657010244306,371.18626220216663 L203.74928428575825,368.18426416915526 M203.74928428575825,368.18426416915526 L195.30979546713144,364.1456376385096 M195.30979546713144,364.1456376385096 L188.40278760157352,359.22670756655543 M188.40278760157352,359.22670756655543 L183.29330615193203,353.6176149381388 M183.29330615193203,353.6176149381388 L180.17660120262158,347.5348620812594 M180.17660120262158,347.5348620812594 L179.1708102330303,341.2128293044537 M179.1708102330303,341.2128293044537 L180.31265144293297,334.8946930905546 M180.31265144293297,334.8946930905546 L183.5563259735763,328.8230332095068 M183.5563259735763,328.8230332095068 L188.77556951149305,323.230539413486 M188.77556951149305,323.230539413486 L195.7687382097491,318.3311817251866 M274.47573389010967,377.8104076863848 L274.43328945882223,364.1456376385095 M195.8374030653365,331.98080324125783 L188.8465907127795,336.8817841739487 M188.8465907127795,336.8817841739487 L183.6291133969986,342.4761299044486 M183.6291133969986,342.4761299044486 L180.38654637590056,348.54979923754087 M180.38654637590056,348.54979923754087 L179.2451103233225,354.8700251978885 M179.2451103233225,354.8700251978885 L180.2505872444895,361.1941477048991 M180.2505872444895,361.1941477048991 L183.36626971490324,367.27890996640804 M183.36626971490324,367.27890996640804 L188.47405844866563,372.88985445734477 M188.47405844866563,372.88985445734477 L195.3787676679734,377.8104076863847 M195.3787676679734,377.8104076863847 L203.81543997847828,381.8503662992272 M203.81543997847828,381.8503662992272 L213.459499902259,384.8533541524357 M213.459499902259,384.8533541524357 L223.93924400018375,386.70302127696925 M223.93924400018375,386.70302127696925 L234.85032382324474,387.3276502515174 M234.85032382324474,387.3276502515174 L245.77149752137564,386.70301908486283 M245.77149752137564,386.70301908486283 L256.28113824580794,384.85335470036364 M256.28113824580794,384.85335470036364 L265.97374200137153,381.85036794253097 M265.97374200137153,381.85036794253097 L274.47573389010967,377.8104076863848 M274.47573389010967,377.8104076863848 L604.7703727335651,186.6899970145102 M547.851164757048,148.61544271835584 L512.5168143618419,154.05818623392287 M512.5168143618419,154.05818623392287 L499.7646692325397,181.71922203301392 M499.7646692325397,181.71922203301392 L535.1522777166293,202.01628070250024 M535.1522777166293,202.01628070250024 L583.2916313526378,194.5823445560543 M583.2916313526378,194.5823445560543 L592.5970108114324,174.20363507037604 M592.5970108114324,174.20363507037604 L593.7273893627926,172.52907540170543 M593.7273893627926,172.52907540170543 L594.520945578302,170.79112210114135 M594.520945578302,170.79112210114135 L594.9676083222405,169.01202343750936 M594.9676083222405,169.01202343750936 L595.9382319987662,166.88636371777545 M595.9382319987662,166.88636371777545 L594.979304277229,166.3382435792363 M594.979304277229,166.3382435792363 L593.8085086524252,162.8814858752208 M593.8085086524252,162.8814858752208 L591.3460287709611,159.654122855583 M591.3460287709611,159.654122855583 L587.712803258836,156.81379575054075 M587.712803258836,156.81379575054075 L586.8613123998063,156.30529721858295 M586.8613123998063,156.30529721858295 L578.9975239233569,151.81157198559538 M578.9975239233569,151.81157198559538 L577.1827156984755,150.86212073618714 M577.1827156984755,150.86212073618714 L572.4319115677582,149.0281074305879 M572.4319115677582,149.0281074305879 L567.131841761101,147.79199505050389 M567.131841761101,147.79199505050389 L561.5082008309016,147.20626371672165 M561.5082008309016,147.20626371672165 L560.5511279049798,146.65920377365597 M560.5511279049798,146.65920377365597 L556.861112246075,147.22759674661114 M556.861112246075,147.22759674661114 L553.7715629033967,147.49350052913996 M553.7715629033967,147.49350052913996 L550.7554190667843,147.9580881307868 M550.7554190667843,147.9580881307868 L547.851164757048,148.61544271835584 M207.85984590819757,344.66162871761907 L206.68787341645034,346.36464567524877 M206.68787341645034,346.36464567524877 L205.85404811037267,348.1327291426396 M205.85404811037267,348.1327291426396 L205.36911910328655,349.943299965088 M217.61214329289498,323.9816305721808 L207.85984590819757,344.66162871761907 M205.36911910328655,349.943299965088 L204.34857239230786,352.10739689181156 M266.15612026240706,316.45844144650437 L217.61214329289498,323.9816305721808 M204.34857239230786,352.10739689181156 L205.30563546206884,352.66557579774883 M301.54372377327144,337.0252511771718 L266.15612026240706,316.45844144650437 M205.30563546206884,352.66557579774883 L206.42070175678515,356.1871629721805 M206.42070175678515,356.1871629721805 L208.84529682905537,359.47722571939306 M208.84529682905537,359.47722571939306 L212.46128532713027,362.3744706059307 M288.3869409834249,365.186855948788 L301.54372377327144,337.0252511771718 M212.46128532713027,362.3744706059307 L213.31194772539502,362.8933307847411 M252.6056724654617,370.74624695977957 L288.3869409834249,365.186855948788 M213.31194772539502,362.8933307847411 L221.17573186516904,367.4808934893026 M243.47559672874004,372.16479524519207 L246.60341168878742,371.89297888657063 M246.60341168878742,371.89297888657063 L249.6598242726858,371.4180951541017 M249.6598242726858,371.4180951541017 L252.6056724654617,370.74624695977957 M221.17573186516904,367.4808934893026 L222.99307543142749,368.45069306225184 M239.7356586199409,372.7458748552151 L243.47559672874004,372.16479524519207 M222.99307543142749,368.45069306225184 L227.76330422647516,370.32452831524984 M227.76330422647516,370.32452831524984 L233.1005501823198,371.5878641525918 M233.1005501823198,371.5878641525918 L238.7767219918402,372.1866032514429 M238.7767219918402,372.1866032514429 L239.7356586199409,372.7458748552151 M274.43328945882223,364.1456376385095 L604.8380677694123,173.0888529996405 M213.24903572222678,349.2334839089161 L212.39808983084575,348.71479510329965 M221.1154418552309,353.8195317796167 L213.24903572222678,349.2334839089161 M212.39808983084575,348.71479510329965 L208.78089859367248,345.8185073029148 M208.78089859367248,345.8185073029148 L206.3555015324576,342.5295317388178 M206.3555015324576,342.5295317388178 L205.2400729099948,339.0091086448334 M222.93339180213385,354.7890112083101 L221.1154418552309,353.8195317796167 M205.2400729099948,339.0091086448334 L204.2826910428442,338.4511142852259 M238.722319619646,358.52368840868195 L233.04424628183853,357.9251468852783 M233.04424628183853,357.9251468852783 L227.7052144208323,356.66222796930185 M227.7052144208323,356.66222796930185 L222.93339180213385,354.7890112083101 M204.2826910428442,338.4511142852259 L205.30358651233922,336.2877329530735 M239.6815762979304,359.0827754712891 L238.722319619646,358.52368840868195 M205.30358651233922,336.2877329530735 L205.78868370493456,334.47776094333096 M205.78868370493456,334.47776094333096 L206.6227938675425,332.71026233997185 M206.6227938675425,332.71026233997185 L207.7951641879084,331.0078088194772 M243.42276990343683,358.50188759856 L239.6815762979304,359.0827754712891 M207.7951641879084,331.0078088194772 L217.55078897392772,310.3346601301242 M252.555910307255,357.08380743403194 L249.60907280681357,357.75543391028884 M249.60907280681357,357.75543391028884 L246.55163427612453,358.2301609342419 M246.55163427612453,358.2301609342419 L243.42276990343683,358.50188759856 M217.55078897392772,310.3346601301242 L266.1110206682346,302.8139662339155 M288.3491853478083,351.52625165478696 L252.555910307255,357.08380743403194 M266.1110206682346,302.8139662339155 L301.5104237263693,323.3739589110885 M301.5104237263693,323.3739589110885 L288.3491853478083,351.52625165478696 M512.5537975877553,140.46802482046553 L547.8998564000766,135.02711650210415 M499.7974667764877,168.11974874490784 L512.5537975877553,140.46802482046553 M535.1968748144842,188.40999044688647 L499.7974667764877,168.11974874490784 M583.3522132876576,180.97854950119483 L535.1968748144842,188.40999044688647 M592.6606220425621,160.60668937659483 L583.3522132876576,180.97854950119483 M595.0319902938384,155.41682482977723 L594.5851848893618,157.1953246903966 M594.5851848893618,157.1953246903966 L593.791370678128,158.93269313623892 M593.791370678128,158.93269313623892 L592.6606220425621,160.60668937659483 M596.0029294284415,153.2918806928201 L595.0319902938384,155.41682482977723 M595.0436816654741,152.74394509753222 L596.0029294284415,153.2918806928201 M587.7747396463305,143.22270556268637 L591.409179396675,146.06207559869682 M591.409179396675,146.06207559869682 L593.8724865387386,149.2883514542017 M593.8724865387386,149.2883514542017 L595.0436816654741,152.74394509753222 M586.9229647412675,142.7143784008171 L587.7747396463305,143.22270556268637 M579.0565542658007,138.2221679737268 L586.9229647412675,142.7143784008171 M577.2411413507682,137.27303686254834 L579.0565542658007,138.2221679737268 M561.5614180166922,133.61841280832658 L567.1869254364002,134.2039465704779 M567.1869254364002,134.2039465704779 L572.4887563518078,135.43964203720174 M572.4887563518078,135.43964203720174 L577.2411413507682,137.27303686254834 M560.6040262833599,133.07153740284804 L561.5614180166922,133.61841280832658 M556.9127884274068,133.63973864222646 L560.6040262833599,133.07153740284804 M547.8998564000766,135.02711650210415 L550.8050722731422,134.3699836283397 M550.8050722731422,134.3699836283397 L553.8222151961974,133.90555273218587 M553.8222151961974,133.90555273218587 L556.9127884274068,133.63973864222646 M512.5168143618419,154.05818623392287 L512.5537975877553,140.46802482046553 M547.8998564000766,135.02711650210415 L547.851164757048,148.61544271835584 M499.7646692325397,181.71922203301392 L499.7974667764877,168.11974874490784 M535.1522777166293,202.01628070250024 L535.1968748144842,188.40999044688647 M583.2916313526378,194.5823445560543 L583.3522132876576,180.97854950119483 M592.6606220425621,160.60668937659483 L592.5970108114324,174.20363507037604 M595.0319902938384,155.41682482977723 L594.9676083222405,169.01202343750936 M595.9382319987662,166.88636371777545 L596.0029294284415,153.2918806928201 M595.0436816654741,152.74394509753222 L594.979304277229,166.3382435792363 M587.712803258836,156.81379575054075 L587.7747396463305,143.22270556268637 M586.8613123998063,156.30529721858295 L586.9229647412675,142.7143784008171 M578.9975239233569,151.81157198559538 L579.0565542658007,138.2221679737268 M577.1827156984755,150.86212073618714 L577.2411413507682,137.27303686254834 M561.5614180166922,133.61841280832658 L561.5082008309016,147.20626371672165 M560.5511279049798,146.65920377365597 L560.6040262833599,133.07153740284804 M556.9127884274068,133.63973864222646 L556.861112246075,147.22759674661114 M205.30358651233922,336.2877329530735 L205.36911910328655,349.943299965088 M207.7951641879084,331.0078088194772 L207.85984590819757,344.66162871761907 M217.61214329289498,323.9816305721808 L217.55078897392772,310.3346601301242 M204.34857239230786,352.10739689181156 L204.2826910428442,338.4511142852259 M266.15612026240706,316.45844144650437 L266.1110206682346,302.8139662339155 M205.2400729099948,339.0091086448334 L205.30563546206884,352.66557579774883 M301.54372377327144,337.0252511771718 L301.5104237263693,323.3739589110885 M212.46128532713027,362.3744706059307 L212.39808983084575,348.71479510329965 M288.3869409834249,365.186855948788 L288.3491853478083,351.52625165478696 M213.31194772539502,362.8933307847411 L213.24903572222678,349.2334839089161 M252.555910307255,357.08380743403194 L252.6056724654617,370.74624695977957 M221.17573186516904,367.4808934893026 L221.1154418552309,353.8195317796167 M243.42276990343683,358.50188759856 L243.47559672874004,372.16479524519207 M222.99307543142749,368.45069306225184 L222.93339180213385,354.7890112083101 M239.7356586199409,372.7458748552151 L239.6815762979304,359.0827754712891 M238.722319619646,358.52368840868195 L238.7767219918402,372.1866032514429" stroke="black"  stroke-width="4"  fill="red"/>
<path d="M528.2320311757434,478.4976182703108 L529.1474209254712,186.01379469549016 M527.5746420328662,185.11226145189482 L529.1474209254712,186.01379469549016 M526.6705295052851,477.5896664956208 L527.5746420328662,185.11226145189482 M528.2320311757434,478.4976182703108 L526.6705295052851,477.5896664956208 M529.1474209254712,186.01379469549016 L533.8176129843743,188.1501937408217 M533.8176129843743,188.1501937408217 L539.1940558754217,189.63716880470753 M539.1940558754217,189.63716880470753 L545.0067483120777,190.39985656334045 M545.0067483120777,190.39985656334045 L550.9635964718278,190.39986516511732 M550.9635964718278,190.39986516511732 L556.7652785352514,189.63716987984913 M556.7652785352514,189.63716987984913 L562.1202597203367,188.15019427831396 M562.1202597203367,188.15019427831396 L566.7596134815677,186.01379640838718 M565.5754854779573,478.4976199954025 L566.7596134815677,186.01379640838718 M528.2320311757434,478.4976182703108 L532.8687559677355,480.6492252690251 M532.8687559677355,480.6492252690251 L538.2067087067448,482.1467834582601 M538.2067087067448,482.1467834582601 L543.9778239868382,482.914898825298 M543.9778239868382,482.914898825298 L549.8921014984421,482.91490748828653 M549.8921014984421,482.91490748828653 L555.652363198196,482.1467845410531 M555.652363198196,482.1467845410531 L560.969159871797,480.64922581034307 M560.969159871797,480.64922581034307 L565.5754854779573,478.4976199954025 M527.4402904946953,163.4993940731024 L523.7472857279597,166.1725015363038 M523.7472857279597,166.1725015363038 L521.1839754932446,169.25381673212087 M521.1839754932446,169.25381673212087 L519.8793038806427,172.5891265614522 M519.8793038806427,172.5891265614522 L519.8993104008658,176.01133602223126 M519.8993104008658,176.01133602223126 L521.2436069266503,179.34886348603465 M521.2436069266503,179.34886348603465 L523.8454053944175,182.43417224861554 M523.8454053944175,182.43417224861554 L527.5746420328662,185.11226145189482 M527.4402904946953,163.4993940731024 L529.000077186121,162.59985030001064 M529.000077186121,162.59985030001064 L533.6370805164144,160.46881075010697 M533.6370805164144,160.46881075010697 L538.9860778154208,158.98609213449157 M538.9860778154208,158.98609213449157 L544.7792577750638,158.22574824117174 M544.7792577750638,158.22574824117174 L550.7266937561232,158.22575681578735 M550.7266937561232,158.22575681578735 L556.5308501453532,158.98609320639872 M556.5308501453532,158.98609320639872 L561.901247707398,160.4688112861387 M561.901247707398,160.4688112861387 L566.5690119949182,162.59985200897 M568.1417765061481,163.4993923639919 L566.5690119949182,162.59985200897 M568.1417765061481,163.4993923639919 L571.8733663062407,166.17250099997136 M571.8733663062407,166.17250099997136 L574.4811505567743,169.25381565913085 M574.4811505567743,169.25381565913085 L575.8339501600121,172.5891265614522 M575.8339501600121,172.5891265614522 L575.8633688529127,176.01133602223126 M575.8633688529127,176.01133602223126 L574.5672323066672,179.34886241197927 M574.5672323066672,179.34886241197927 L572.0099655059995,182.434171711425 M572.0099655059995,182.434171711425 L568.319385789445,185.1122597391494 M566.7596134815677,186.01379640838718 L568.319385789445,185.1122597391494 M526.5380898761933,455.8227527490902 L527.4402904946953,163.4993940731024 M526.6705295052851,477.5896664956208 L522.9680516157055,474.8925070541911 M522.9680516157055,474.8925070541911 L520.3849689333393,471.78522202390025 M520.3849689333393,471.78522202390025 L519.0504124957758,468.42391419318415 M519.0504124957758,468.42391419318415 L519.0306905784064,464.9773128171903 M519.0306905784064,464.9773128171903 L520.3261860896504,461.61822248616386 M520.3261860896504,461.61822248616386 L522.8713282640341,458.51493076214535 M522.8713282640341,458.51493076214535 L526.5380898761933,455.8227527490902 M274.4815136032275,627.1080851332433 L275.2795228735383,642.4168162511702 M275.2795228735383,642.4168162511702 L277.5643776473333,656.6557743621357 M277.5643776473333,656.6557743621357 L281.3070887733759,669.6580633098332 M281.3070887733759,669.6580633098332 L286.4614086740992,681.2720298619955 M286.4614086740992,681.2720298619955 L292.9644418754263,691.3628919020485 M292.9644418754263,691.3628919020485 L300.7375656291616,699.8142497839716 M300.7375656291616,699.8142497839716 L309.6873986155197,706.5295314787679 M309.6873986155197,706.5295314787679 L319.7070639234499,711.4327175193235 M319.7070639234499,711.4327175193235 L330.6774731545642,714.4694643002848 M330.6774731545642,714.4694643002848 L342.46882493382697,715.6072222947184 M342.46882493382697,715.6072222947184 L354.94219288485755,714.8357569527255 M354.94219288485755,714.8357569527255 L367.9511679563349,712.167010681364 M367.9511679563349,712.167010681364 L381.3435712866186,707.634780941444 M381.3435712866186,707.634780941444 L394.9632510131303,701.2943496340579 M394.9632510131303,701.2943496340579 L408.65184670523604,693.2215632095886 M408.65184670523604,693.2215632095886 L422.25059513100683,683.512006015797 M422.25059513100683,683.512006015797 L435.60210652899525,672.2798399729443 M435.60210652899525,672.2798399729443 L448.5521259396269,659.656307727328 M448.5521259396269,659.656307727328 L460.9512109131872,645.7884180490664 M460.9512109131872,645.7884180490664 L472.6564028100191,630.8370928584309 M472.6564028100191,630.8370928584309 L483.5327813076726,614.975417828071 M483.5327813076726,614.975417828071 L493.4549226451693,598.3868482223913 M493.4549226451693,598.3868482223913 L502.3082857063905,581.262879131917 M502.3082857063905,581.262879131917 L509.9904998643503,563.8012759453987 M509.9904998643503,563.8012759453987 L516.412440576196,546.2036053955555 M516.412440576196,546.2036053955555 L521.499293140344,528.6732310340294 M521.499293140344,528.6732310340294 L525.1913436849436,511.412970339769 M525.1913436849436,511.412970339769 L527.4447486585962,494.6227666390794 M527.4447486585962,494.6227666390794 L528.2320311757434,478.4976182703108 M272.92001222060804,626.1870186693702 L273.7186262893004,641.4954497226723 M273.7186262893004,641.4954497226723 L276.0040778456789,655.7341897656124 M276.0040778456789,655.7341897656124 L279.74737079204476,668.7363451077201 M279.74737079204476,668.7363451077201 L284.90225081225043,680.3502639396672 M284.90225081225043,680.3502639396672 L291.4058159712925,690.4411645158763 M291.4058159712925,690.4411645158763 L299.1794374097919,698.8926465167608 M299.1794374097919,698.8926465167608 L308.1297281173647,705.6081362074405 M308.1297281173647,705.6081362074405 L318.1498059632307,710.5116114231414 M318.1498059632307,710.5116114231414 L329.12057786698034,713.5487249028513 M329.12057786698034,713.5487249028513 L340.912238343338,714.6869225702918 M340.912238343338,714.6869225702918 L353.3858575302165,713.9159644919413 M353.3858575302165,713.9159644919413 L366.3950235451271,711.2477869323963 M366.3950235451271,711.2477869323963 L379.7875553757174,706.7161805327329 M379.7875553757174,706.7161805327329 L393.40729971649796,700.3764197820386 M393.40729971649796,700.3764197820386 L407.0958954085592,692.3043432206485 M407.0958954085592,692.3043432206485 L420.6945792189055,682.5955268806616 M420.6945792189055,682.5955268806616 L434.0459621123544,671.3641240578329 M434.0459621123544,671.3641240578329 L446.99579057058617,658.7413685667453 M446.99579057058617,658.7413685667453 L459.3946242934929,644.8742602313557 M459.3946242934929,644.8742602313557 L471.0995074721684,629.923712013632 M471.0995074721684,629.923712013632 L481.97552327020844,614.0628007097685 M481.97552327020844,614.0628007097685 L491.89725203795734,597.4749728794103 M491.89725203795734,597.4749728794103 L500.750157343054,580.3517151773735 M500.750157343054,580.3517151773735 L508.43187378047105,562.8907849065578 M508.43187378047105,562.8907849065578 L514.8532825004629,545.2937411506741 M514.8532825004629,545.2937411506741 L519.9395749151716,527.7639403257484 M519.9395749151716,527.7639403257484 L523.6310436159964,510.50419336190635 M523.6310436159964,510.50419336190635 L525.8838517919899,493.7144376963254 M525.8838517919899,493.7144376963254 L526.6705295052851,477.5896664956208 M274.4815136032275,627.1080851332433 L272.92001222060804,626.1870186693702 M272.772335905815,650.161290959986 L271.84160841462995,356.4741864560375 M567.1241658013774,477.5896647706809 L566.3060000407725,495.06102837978995 M566.3060000407725,495.06102837978995 L564.0002284404766,513.2182718887042 M564.0002284404766,513.2182718887042 L560.2317030264006,531.8771674936447 M560.2317030264006,531.8771674936447 L555.0398258002256,550.8487391086574 M555.0398258002256,550.8487391086574 L548.4780485601788,569.9412058285665 M548.4780485601788,569.9412058285665 L540.6133628157968,588.961924990161 M540.6133628157968,588.961924990161 L531.5256043580197,607.7190719050509 M531.5256043580197,607.7190719050509 L521.3066726074413,626.023647695301 M521.3066726074413,626.023647695301 L510.05964342653124,643.6910547068024 M510.05964342653124,643.6910547068024 L497.8977918803693,660.5430817779674 M497.8977918803693,660.5430817779674 L484.94348684766265,676.4095141575249 M484.94348684766265,676.4095141575249 L471.3270806836767,691.1297731282733 M471.3270806836767,691.1297731282733 L457.1856381178794,704.5544092755807 M457.1856381178794,704.5544092755807 L442.6616459636468,716.546739512037 M442.6616459636468,716.546739512037 L427.9016631606235,726.9839753460332 M427.9016631606235,726.9839753460332 L413.05491164473125,735.7587208349528 M413.05491164473125,735.7587208349528 L398.27184090032887,742.7799048925071 M398.27184090032887,742.7799048925071 L383.70265680668405,747.9737590470991 M383.70265680668405,747.9737590470991 L369.49584628529476,751.284818077424 M369.49584628529476,751.284818077424 L355.7966904487494,752.6763322535503 M355.7966904487494,752.6763322535503 L342.74580132706717,752.1309797327475 M342.74580132706717,752.1309797327475 L330.4776879464542,749.6509875291288 M330.4776879464542,749.6509875291288 L319.11931568703426,745.2583541388278 M319.11931568703426,745.2583541388278 L308.7888087684797,738.9947055505336 M308.7888087684797,738.9947055505336 L299.5941456725,730.9211391137978 M299.5941456725,730.9211391137978 L291.6319801386933,721.1174944199087 M291.6319801386933,721.1174944199087 L284.98655654114657,709.6818824283586 M284.98655654114657,709.6818824283586 L279.7287450466435,696.7296022230695 M279.7287450466435,696.7296022230695 L275.9151815969207,682.3922361412815 M275.9151815969207,682.3922361412815 L273.58762181033103,666.8162093692212 M273.58762181033103,666.8162093692212 L272.772335905815,650.161290959986 M568.319385789445,185.1122597391494 L567.1241658013774,477.5896647706809 M274.34687021206156,649.238178146941 L275.15276713030755,665.7161188145255 M275.15276713030755,665.7161188145255 L277.4548123662634,681.1269302399818 M277.4548123662634,681.1269302399818 L281.2270256404431,695.3123856860349 M281.2270256404431,695.3123856860349 L286.4281264158029,708.1276827293127 M286.4281264158029,708.1276827293127 L293.00212000921397,719.4426441436102 M293.00212000921397,719.4426441436102 L300.8789255790017,729.1431348519973 M300.8789255790017,729.1431348519973 L309.9752408965505,737.1320669873679 M309.9752408965505,737.1320669873679 L320.1954590006134,743.3303082210232 M320.1954590006134,743.3303082210232 L331.4327735473428,747.6775169058232 M331.4327735473428,747.6775169058232 L343.57033962301915,750.132407444477 M343.57033962301915,750.132407444477 L356.4825472672132,750.6730981693412 M356.4825472672132,750.6730981693412 L370.03633289508093,749.2974199544001 M370.03633289508093,749.2974199544001 L384.092570538046,746.0224203436247 M384.092570538046,746.0224203436247 L398.50751348460096,740.8844113233064 M398.50751348460096,740.8844113233064 L413.13423853200345,733.9383390619481 M413.13423853200345,733.9383390619481 L427.82410988326313,725.2570495293202 M427.82410988326313,725.2570495293202 L442.42824974110465,714.9306323491604 M442.42824974110465,714.9306323491604 L456.7989854112211,703.0654593346994 M456.7989854112211,703.0654593346994 L470.79128112068526,689.7829177139357 M470.79128112068526,689.7829177139357 L484.2641254974056,675.2182646332249 M484.2641254974056,675.2182646332249 L497.08186496953516,659.5194414999671 M497.08186496953516,659.5194414999671 L509.1155047393971,642.8452613681654 M509.1155047393971,642.8452613681654 L520.2439339901638,625.3642465022517 M520.2439339901638,625.3642465022517 L530.3550539606908,607.2528077638393 M530.3550539606908,607.2528077638393 L539.3468567671787,588.693479073075 M539.3468567671787,588.693479073075 L547.1283883361381,569.8734120202315 M547.1283883361381,569.8734120202315 L553.6206603729687,550.9824106528307 M553.6206603729687,550.9824106528307 L558.7573870296993,532.2111495967206 M558.7573870296993,532.2111495967206 L562.4856885019312,513.7493845226517 M562.4856885019312,513.7493845226517 L564.7665860643402,495.7840483142829 M564.7665860643402,495.7840483142829 L565.5754854779573,478.4976199954025 M273.4276096177713,355.5574896824982 L274.34687021206156,649.238178146941 M271.84160841462995,356.4741864560375 L273.4276096177713,355.5574896824982 M274.4815136032275,627.1080851332433 L278.1785911916938,629.8451621126593 M278.1785911916938,629.8451621126593 L280.74471862712954,633.0002146042112 M280.74471862712954,633.0002146042112 L282.0508004050809,636.4153428246719 M282.0508004050809,636.4153428246719 L282.03077946075314,639.9194504619715 M282.03077946075314,639.9194504619715 L280.68495875041924,643.3368497036214 M280.68495875041924,643.3368497036214 L278.08025589556655,646.4959969629498 M278.08025589556655,646.4959969629498 L274.34687021206156,649.238178146941 M233.73496541676747,627.1080868832532 L232.52231116868896,333.58138883165645 M528.0867842772152,454.9167902924379 L527.2850290037956,472.3779881132216 M527.2850290037956,472.3779881132216 L524.9954724721489,490.52326569894024 M524.9954724721489,490.52326569894024 L521.2428016908863,509.16851586032453 M521.2428016908863,509.16851586032453 L516.0662580126377,528.1248991411677 M516.0662580126377,528.1248991411677 L509.5191385819572,547.2007858955664 M509.5191385819572,547.2007858955664 L501.66828784195206,566.2036979771907 M501.66828784195206,566.2036979771907 L492.59340330577226,584.941987075928 M492.59340330577226,584.941987075928 L482.3862563456007,603.2268409082578 M482.3862563456007,603.2268409082578 L471.14980594038434,620.8738571127234 M471.14980594038434,620.8738571127234 L458.9972226924838,637.7050266888571 M458.9972226924838,637.7050266888571 L446.05078423914915,653.5503421458804 M446.05078423914915,653.5503421458804 L432.4407657270179,668.2494353166433 M432.4407657270179,668.2494353166433 L418.3041692784637,681.6530687102371 M418.3041692784637,681.6530687102371 L403.7834343937504,693.6247704947522 M403.7834343937504,693.6247704947522 L389.0250881635371,704.0419609000242 M389.0250881635371,704.0419609000242 L374.17833663923784,712.7974480136558 M374.17833663923784,712.7974480136558 L359.3936293393686,719.8003581664173 M359.3936293393686,719.8003581664173 L344.8211880925986,724.9771116714907 M344.8211880925986,724.9771116714907 L330.60953172435717,728.2724213883654 M330.60953172435717,728.2724213883654 L316.9039886997097,729.6497031601614 M316.9039886997097,729.6497031601614 L303.8452336753312,729.091786241483 M303.8452336753312,729.091786241483 L291.56785288338773,726.6010326208643 M291.56785288338773,726.6010326208643 L280.198902920164,722.1995579228305 M280.198902920164,722.1995579228305 L269.8566124218009,715.9290860236503 M269.8566124218009,715.9290860236503 L260.6490766899426,707.8507915245181 M260.6490766899426,707.8507915245181 L252.67307743691856,698.0445696756728 M252.67307743691856,698.0445696756728 L246.01299723325153,686.6085645174618 M246.01299723325153,686.6085645174618 L240.7398532321423,673.658085120882 M240.7398532321423,673.658085120882 L236.91043595732862,659.3247002387279 M236.91043595732862,659.3247002387279 L234.56666161920393,643.754797957398 M234.56666161920393,643.754797957398 L233.73496541676747,627.1080868832532 M529.000077186121,162.59985030001064 L528.0867842772152,454.9167902924379 M235.3094852937404,626.1870169195151 L236.1316185319127,642.6568370270942 M236.1316185319127,642.6568370270942 L238.44970678816574,658.0615881220582 M238.44970678816574,658.0615881220582 L242.2376063751541,672.2431033669766 M242.2376063751541,672.2431033669766 L247.45387791086492,685.0566170506962 M247.45387791086492,685.0566170506962 L254.0423737593112,696.3719654445508 M254.0423737593112,696.3719654445508 L261.93286757445134,706.0750036909759 M261.93286757445134,706.0750036909759 L271.0419203682129,714.0686112899971 M271.0419203682129,714.0686112899971 L281.2737984069929,720.2736009864221 M281.2737984069929,720.2736009864221 L292.5215798545244,724.6295547203505 M292.5215798545244,724.6295547203505 L304.66831638257656,727.0950901781308 M304.66831638257656,727.0950901781308 L317.5883076591597,727.648209929741 M317.5883076591597,727.648209929741 L331.1484137478572,726.2866113575761 M331.1484137478572,726.2866113575761 L345.2094466279565,723.027192600718 M345.2094466279565,723.027192600718 L359.6276126963579,717.9061018885753 M359.6276126963579,717.9061018885753 L374.25595726124294,710.9781091834275 M374.25595726124294,710.9781091834275 L388.9458286208517,702.3158737488799 M388.9458286208517,702.3158737488799 L403.54834894482025,692.009289885024 M403.54834894482025,692.009289885024 L417.9158613807457,680.1645274498267 M417.9158613807457,680.1645274498267 L431.903361591551,666.9027671796108 M431.903361591551,666.9027671796108 L445.3698850586054,652.3590571423505 M445.3698850586054,652.3590571423505 L458.17984024325256,636.6811289615789 M458.17984024325256,636.6811289615789 L470.20430870197725,620.0275873494085 M470.20430870197725,620.0275873494085 L481.32227001402106,602.5667493684728 M481.32227001402106,602.5667493684728 L491.42172887755726,584.4748257449164 M491.42172887755726,584.4748257449164 L500.4007929628023,565.9341571592283 M500.4007929628023,565.9341571592283 L508.16863504193145,547.1317104225338 M508.16863504193145,547.1317104225338 L514.6464036585971,528.257115016904 M514.6464036585971,528.257115016904 L519.7679585466868,509.50088270251103 M519.7679585466868,509.50088270251103 L523.4805729240679,491.05261945074096 M523.4805729240679,491.05261945074096 L525.745426965588,473.09912295222637 M525.745426965588,473.09912295222637 L526.5380898761933,455.8227527490902 M234.1082976263396,332.66673540498596 L235.3094852937404,626.1870169195151 M232.52231116868896,333.58138883165645 L234.1082976263396,332.66673540498596 M528.0867842772152,454.9167902924379 L532.6907926287101,452.770542453145 M532.6907926287101,452.770542453145 L538.001690355466,451.2772404347471 M538.001690355466,451.2772404347471 L543.7535708237729,450.5114687283266 M543.7535708237729,450.5114687283266 L549.6585700995869,450.51147736415555 M549.6585700995869,450.51147736415555 L555.4212709265411,451.27724151430596 M555.4212709265411,451.27724151430596 L560.7532645826872,452.77054299300266 M560.7532645826872,452.77054299300266 L565.3875964246089,454.91679201359204 M566.5690119949182,162.59985200897 L565.3875964246089,454.91679201359204 M566.9490840195775,455.822751027785 L565.3875964246089,454.91679201359204 M568.1417765061481,163.4993923639919 L566.9490840195775,455.822751027785 M567.1241658013774,477.5896647706809 L570.7885371268187,474.8925065131749 M570.7885371268187,474.8925065131749 L573.3277220729849,471.7852209421934 M573.3277220729849,471.7852209421934 L574.6148040912964,468.42391419318415 M574.6148040912964,468.42391419318415 L574.5858039439817,464.9773128171903 M574.5858039439817,464.9773128171903 L573.2428653219511,461.61822140552215 M573.2428653219511,461.61822140552215 L570.6538818364108,458.514930221987 M570.6538818364108,458.514930221987 L566.9490840195775,455.822751027785 M272.92001222060804,626.1870186693702 L268.2778886823371,624.0049822458406 M268.2778886823371,624.0049822458406 L262.92298226884475,622.48678309337 M262.92298226884475,622.48678309337 L257.12339392207514,621.7082521382107 M257.12339392207514,621.7082521382107 L251.16937514377008,621.7082433584081 M251.16937514377008,621.7082433584081 L245.35878979106843,622.4867819958125 M245.35878979106843,622.4867819958125 L239.98243384215786,624.0049816969819 M239.98243384215786,624.0049816969819 L235.3094852937404,626.1870169195151 M271.9914345032874,332.6667371426501 L272.92001222060804,626.1870186693702 M273.5642130996476,333.58138709383735 L271.9914345032874,332.6667371426501 M273.5642130996476,333.58138709383735 L274.4815136032275,627.1080851332433 M233.914486781961,356.47418471433593 L238.5925454456961,358.64651183719064 M238.5925454456961,358.64651183719064 L243.9922719691775,360.1584957912842 M243.9922719691775,360.1584957912842 L249.84249509067374,360.9340116341692 M249.84249509067374,360.9340116341692 L255.84923100062034,360.934020380627 M255.84923100062034,360.934020380627 L261.7106458993589,360.15849688450885 M261.7106458993589,360.15849688450885 L267.13219697743534,358.64651238372244 M267.13219697743534,358.64651238372244 L271.84160841462995,356.4741864560375 M235.11845534309677,650.1612892060946 L233.914486781961,356.47418471433593 M272.772335905815,650.161290959986 L268.09695416125226,652.348818812114 M268.09695416125226,652.348818812114 L262.71453944729143,653.8713822031635 M262.71453944729143,653.8713822031635 L256.89539911086536,654.6523311715971 M256.89539911086536,654.6523311715971 L250.9319472904628,654.6523223639524 M250.9319472904628,654.6523223639524 L245.1238380077183,653.8713811022905 M245.1238380077183,653.8713811022905 L239.76293447924425,652.348818261758 M239.76293447924425,652.348818261758 L235.11845534309677,650.1612892060946 M566.9490840195775,455.822751027785 L566.1315625045494,474.2896396961936 M566.1315625045494,474.2896396961936 L563.8347112814057,493.44654766549604 M563.8347112814057,493.44654766549604 L560.0806627847289,513.1220373316617 M560.0806627847289,513.1220373316617 L554.9042537275344,533.1404804024093 M554.9042537275344,533.1404804024093 L548.3526437945153,553.3236027710556 M548.3526437945153,553.3236027710556 L540.4850019600492,573.4919494972859 M540.4850019600492,573.4919494972859 L531.3718044878372,593.4664079242235 M531.3718044878372,593.4664079242235 L521.0943770188597,613.0696593855818 M521.0943770188597,613.0696593855818 L509.7441054849999,632.127699647991 M509.7441054849999,632.127699647991 L497.4217186121192,650.4713649485195 M497.4217186121192,650.4713649485195 L484.236426708364,667.9375551635424 M484.236426708364,667.9375551635424 L470.3050146060215,684.3708098291997 M470.3050146060215,684.3708098291997 L455.75089439365274,699.6243914181539 M455.75089439365274,699.6243914181539 L440.70306744908595,713.5617862101078 M440.70306744908595,713.5617862101078 L425.2950778813487,726.0576966632146 M425.2950778813487,726.0576966632146 L409.66387118296484,736.999218170127 M409.66387118296484,736.999218170127 L393.94867613815836,746.286893010517 M393.94867613815836,746.286893010517 L378.2898057192154,753.8355320044434 M378.2898057192154,753.8355320044434 L362.8274764701998,759.5750126043142 M362.8274764701998,759.5750126043142 L347.7005746773181,763.4510924780974 M347.7005746773181,763.4510924780974 L333.04547024090704,765.4259038136973 M333.04547024090704,765.4259038136973 L318.9947758388347,765.4783529319222 M318.9947758388347,765.4783529319222 L305.67617332366905,763.604585677892 M305.67617332366905,763.604585677892 L293.21122493480925,759.8179170957366 M293.21122493480925,759.8179170957366 L281.7142571740591,754.1490505194719 M281.7142571740591,754.1490505194719 L271.2912722126645,746.6457245122497 M271.2912722126645,746.6457245122497 L262.03889853412426,737.3726256254962 M262.03889853412426,737.3726256254962 L254.04348670289428,726.4107861363158 M254.04348670289428,726.4107861363158 L247.3801381464809,713.8570301320066 M247.3801381464809,713.8570301320066 L242.11208259368246,699.8230504159316 M242.11208259368246,699.8230504159316 L238.28982526286578,684.4346599470551 M238.28982526286578,684.4346599470551 L235.95071231619784,667.8305967710015 M235.95071231619784,667.8305967710015 L235.11845534309677,650.1612892060946 M273.5642130996476,333.58138709383735 L277.28797113695623,336.2993999793293 M277.28797113695623,336.2993999793293 L279.8725685449944,339.4324835571461 M279.8725685449944,339.4324835571461 L281.1879776005971,342.82383969845193 M281.1879776005971,342.82383969845193 L281.1676650925463,346.3035642781184 M281.1676650925463,346.3035642781184 L279.811938701404,349.6971920016479 M279.811938701404,349.6971920016479 L277.18820431972676,352.8343713405917 M277.18820431972676,352.8343713405917 L273.4276096177713,355.5574896824982 M232.34172293322564,355.55749142404414 L233.914486781961,356.47418471433593 M232.52231116868896,333.58138883165645 L228.75932406235273,336.2994005246721 M228.75932406235273,336.2994005246721 L226.12950354212413,339.4324846481648 M226.12950354212413,339.4324846481648 L224.7651313077297,342.82383969845193 M224.7651313077297,342.82383969845193 L224.73524844199375,346.3035642781184 M224.73524844199375,346.3035642781184 L226.04197884665106,349.69719309375876 M226.04197884665106,349.69719309375876 L228.62043100818107,352.8343718868141 M228.62043100818107,352.8343718868141 L232.34172293322564,355.55749142404414 M234.1082976263396,332.66673540498596 L238.81524016072808,330.49990344470945 M238.81524016072808,330.49990344470945 L244.23064404657973,328.99228369666145 M244.23064404657973,328.99228369666145 L250.08337929724817,328.2191711186594 M250.08337929724817,328.2191711186594 L256.080544843696,328.2191798372684 M256.080544843696,328.2191798372684 L261.92212311107795,328.9922847865698 M261.92212311107795,328.9922847865698 L267.315765443486,330.49990398974376 M267.315765443486,330.49990398974376 L271.9914345032874,332.6667371426501 M233.55696839182409,649.2381799006766 L232.34172293322564,355.55749142404414 M233.73496541676747,627.1080868832532 L229.9992213950292,629.8451626618264 M229.9992213950292,629.8451626618264 L227.38851951947825,633.0002157028788 M227.38851951947825,633.0002157028788 L226.03417690524861,636.4153428246718 M226.03417690524861,636.4153428246718 L226.00472292446992,639.9194504619715 M226.00472292446992,639.9194504619715 L227.30225069437813,643.336850803381 M227.30225069437813,643.336850803381 L229.86232126876916,646.4959975129965 M229.86232126876916,646.4959975129965 L233.55696839182409,649.2381799006766 M565.3875964246089,454.91679201359204 L564.5707701515995,473.383252528914 M564.5707701515995,473.383252528914 L562.2746066626873,492.5396606687616 M562.2746066626873,492.5396606687616 L558.5212322162195,512.214583272541 M558.5212322162195,512.214583272541 L553.3454775025975,532.2323970478096 M553.3454775025975,532.2323970478096 L546.7944963899909,552.4148334013165 M546.7944963899909,552.4148334013165 L538.9274522922792,572.5824433821405 M538.9274522922792,572.5824433821405 L529.8148162108876,592.5561207453496 M529.8148162108876,592.5561207453496 L519.537908866816,612.1585536171748 M519.537908866816,612.1585536171748 L508.18811165240305,631.2157448811046 M508.18811165240305,631.2157448811046 L495.8661491735477,649.55853816176 M495.8661491735477,649.55853816176 L482.68122806141105,667.0238409405727 M482.68122806141105,667.0238409405727 L468.75012994963055,683.4562005132021 M468.75012994963055,683.4562005132021 L454.196264221428,698.7088872113418 M454.196264221428,698.7088872113418 L439.1486300713345,712.6453952049161 M439.1486300713345,712.6453952049161 L423.7407699559677,725.1404348144848 M423.7407699559677,725.1404348144848 L408.109628260226,736.0811091994221 M408.109628260226,736.0811091994221 L392.39443321548686,745.3679682447753 M392.39443321548686,745.3679682447753 L376.7354977956537,752.9158301493555 M376.7354977956537,752.9158301493555 L361.27303910072794,758.6545794523353 M361.27303910072794,758.6545794523353 L346.14594452721497,762.5299805473933 M346.14594452721497,762.5299805473933 L331.49058562987614,764.504171925514 M331.49058562987614,764.504171925514 L317.43957727104214,764.5560657252149 M317.43957727104214,764.5560657252149 L304.12060400881734,762.6818130616338 M304.12060400881734,762.6818130616338 L291.6552312804337,758.8947336490808 M291.6552312804337,758.8947336490808 L280.15778926288874,753.225534836104 M280.15778926288874,753.225534836104 L269.7342842447416,745.7219585020953 M269.7342842447416,745.7219585020953 L260.4813492457168,736.4486937698126 M260.4813492457168,736.4486937698126 L252.48533974650627,725.4867747133144 M252.48533974650627,725.4867747133144 L245.82136243300525,712.9330264100182 M245.82136243300525,712.9330264100182 L240.55265259077473,698.8991418366936 M240.55265259077473,698.8991418366936 L236.72972125141325,683.5109332874239 M236.72972125141325,683.5109332874239 L234.38992059710816,666.9071373104525 M234.38992059710816,666.9071373104525 L233.55696839182409,649.2381799006766 M235.11845534309677,650.1612892060946 L233.55696839182409,649.2381799006766" stroke="black"  stroke-width="4"  fill="red"/>
<path d="M529.2609956435812,149.72458802246837 L529.5058644792492,71.48450137980507 M529.5058644792492,71.48450137980507 L527.9286695548129,70.58553189747363 M527.6868175176467,148.82386404864786 L527.9286695548129,70.58553189747363 M527.6868175176467,148.82386404864786 L529.2609956435812,149.72458802246837 M567.2232881620727,71.48450308783134 L562.5710018780871,73.61482640386566 M562.5710018780871,73.61482640386566 L557.2010689016187,75.09757473286606 M557.2010689016187,75.09757473286606 L551.3831677953598,75.85810201269135 M551.3831677953598,75.85810201269135 L545.4096500070704,75.85809343536471 M545.4096500070704,75.85809343536471 L539.5806768249611,75.09757366078077 M539.5806768249611,75.09757366078077 L534.1891618640121,73.61482586790146 M534.1891618640121,73.61482586790146 L529.5058644792492,71.48450137980507 M566.9065312335485,149.72458973382794 L567.2232881620727,71.48450308783134 M529.2609956435812,149.72458802246837 L533.9353401700365,151.85906959151487 M533.9353401700365,151.85906959151487 L539.3165587073441,153.34471028921644 M539.3165587073441,153.34471028921644 L545.1344097726055,154.10671370970482 M545.1344097726055,154.10671370970482 L551.0965397893251,154.10672230376377 M551.0965397893251,154.10672230376377 L556.9033609492232,153.3447113633933 M556.9033609492232,153.3447113633933 L562.2630797060758,151.85907012852476 M562.2630797060758,151.85907012852476 L566.9065312335485,149.72458973382794 M529.5058644792492,71.48450137980507 L529.9922616850057,66.3455839139865 M529.9922616850057,66.3455839139865 L531.396727606777,60.92255910632019 M531.396727606777,60.92255910632019 L533.6488946968728,55.48787118773606 M533.6488946968728,55.48787118773606 L536.6356461209655,50.31464867280931 M536.6356461209655,50.31464867280931 L540.2069227038046,45.66285357367411 M540.2069227038046,45.66285357367411 L544.1831812206726,41.7661902720896 M544.1831812206726,41.7661902720896 L548.3645748207484,38.820256903103655 M527.9286695548129,70.58553189747363 L528.4148791913987,65.44674806383148 M528.4148791913987,65.44674806383148 L529.8191672151481,60.02389829637127 M529.8191672151481,60.02389829637127 L532.0711750177292,54.589418016929926 M532.0711750177292,54.589418016929926 L535.057793778518,49.41642528081559 M535.057793778518,49.41642528081559 L538.6289710041506,44.76487052910636 M538.6289710041506,44.76487052910636 L542.6051684783596,40.868446044714915 M542.6051684783596,40.868446044714915 L546.7865424292847,37.92273795621344 M548.3645748207484,38.820256903103655 L546.7865424292847,37.92273795621344 M527.7935656325269,49.034193418400946 L524.0902852687026,51.69968396960326 M524.0902852687026,51.69968396960326 L521.5198614538947,54.77222151175505 M521.5198614538947,54.77222151175505 L520.2115972819804,58.09803307301843 M520.2115972819804,58.09803307301843 L520.231715800353,61.510499962733206 M520.231715800353,61.510499962733206 L521.5798268286015,64.83852902541753 M521.5798268286015,64.83852902541753 L524.1889544200221,67.91505990162176 M524.1889544200221,67.91505990162176 L527.9286695548129,70.58553189747363 M527.5522278097367,127.2304188329739 L527.7935656325269,49.034193418400946 M527.5522278097367,127.2304188329739 L523.8559671320671,129.90112193524794 M523.8559671320671,129.90112193524794 L521.290402887241,132.97966637384383 M521.290402887241,132.97966637384383 L519.9845929186372,136.3119779818822 M519.9845929186372,136.3119779818822 L520.004634892266,139.73111211048797 M520.004634892266,139.73111211048797 L521.3501400308968,143.06564132221968 M521.3501400308968,143.06564132221968 L523.9542607398173,146.1481792743396 M523.9542607398173,146.1481792743396 L527.6868175176467,148.82386404864786 M527.5522278097367,127.2304188329739 L529.1133906972102,126.33168430592832 M529.1133906972102,126.33168430592832 L533.7544876613331,124.20256215918863 M533.7544876613331,124.20256215918863 L539.1082119514103,122.72117785298809 M539.1082119514103,122.72117785298809 L544.9065159504377,121.9615182729429 M544.9065159504377,121.9615182729429 L550.8592171029727,121.96152683984099 M550.8592171029727,121.96152683984099 L556.668516973421,122.72117892393044 M556.668516973421,122.72117892393044 L562.0436794375707,124.20256269473805 M562.0436794375707,124.20256269473805 L566.7155918544813,126.33168601335018 M568.2897555607826,127.23041712540089 L566.7155918544813,126.33168601335018 M568.2897555607826,127.23041712540089 L572.024669639937,129.90112139939777 M572.024669639937,129.90112139939777 L574.6347867173682,132.9796653018184 M574.6347867173682,132.9796653018184 L575.9888099931259,136.3119779818822 M575.9888099931259,136.3119779818822 L576.0182808249049,139.73111211048797 M576.0182808249049,139.73111211048797 L574.721021067435,143.065640249129 M574.721021067435,143.065640249129 L572.1615109957698,146.14817873763138 M572.1615109957698,146.14817873763138 L568.4676796992081,148.82386233744 M566.9065312335485,149.72458973382794 L568.4676796992081,148.82386233744 M567.2232881620727,71.48450308783134 L567.2232881620727,71.48450308783134 M567.2232881620727,71.48450308783134 L566.7679000004407,66.3455856217588 M566.7679000004407,66.3455856217588 L565.3850170035813,60.92256081376007 M565.3850170035813,60.92256081376007 L563.1439275739615,55.48787717913024 M563.1439275739615,55.48787717913024 L560.1571612156313,50.314646096164836 M560.1571612156313,50.314646096164836 L556.574820023795,45.66285420929944 M556.574820023795,45.66285420929944 L552.5769795227435,41.76619144266681 M552.5769795227435,41.76619144266681 L548.3645748207484,38.820256903103655 M568.7874036054226,70.58553018959924 L568.4676796992081,148.82386233744 M567.2232881620727,71.48450308783134 L568.7874036054226,70.58553018959924 M527.7935656325269,49.034193418400946 L527.7935656325269,49.034193418400946 M527.7935656325269,49.034193418400946 L528.2826404426698,44.43831180491776 M528.2826404426698,44.43831180491776 L529.6955940512994,40.61143726395318 M529.6955940512994,40.61143726395318 L531.9620414079643,37.74567548151117 M531.9620414079643,37.74567548151117 L534.9687770404593,35.98515249369018 M534.9687770404593,35.98515249369018 L538.5653593074709,35.41872377840457 M538.5653593074709,35.41872377840457 L542.571595387183,36.07539176920227 M542.571595387183,36.07539176920227 L546.7865424292847,37.92273795621344 M548.3645748207484,38.820256903103655 L549.9295277343091,37.92273454597603 M546.7865424292847,37.92273795621344 L548.351495923912,37.02529530888455 M549.9295277343091,37.92273454597603 L548.351495923912,37.02529530888455 M529.3576955804227,48.13721329944326 L529.1133906972102,126.33168430592832 M527.7935656325269,49.034193418400946 L529.3576955804227,48.13721329944326 M567.0316192648725,48.137215003531935 L566.7155918544813,126.33168601335018 M529.3576955804227,48.13721329944326 L534.0076183793885,46.012247989203445 M534.0076183793885,46.012247989203445 L539.3715340453415,44.533756396485614 M539.3715340453415,44.533756396485614 L545.1808854822337,43.775580370721 M545.1808854822337,43.775580370721 L551.1449383819427,43.77558892088797 M551.1449383819427,43.77558892088797 L556.9653276655174,44.533757465336635 M556.9653276655174,44.533757465336635 L562.3507633561642,46.01224852370717 M562.3507633561642,46.01224852370717 L567.0316192648725,48.137215003531935 M568.6087996869601,49.034191714161125 L567.0316192648725,48.137215003531935 M568.6087996869601,49.034191714161125 L568.2897555607826,127.23041712540089 M568.7874036054226,70.58553018959924 L572.4882452372718,67.9150593659594 M572.4882452372718,67.9150593659594 L575.0525916926748,64.8385279544184 M575.0525916926748,64.8385279544184 L576.3522729553756,61.510499962733206 M576.3522729553756,61.510499962733206 L576.3226895545026,58.09803307301843 M576.3226895545026,58.09803307301843 L574.9660278750466,54.772220441821105 M574.9660278750466,54.772220441821105 L572.3508810604618,51.69968343479883 M572.3508810604618,51.69968343479883 L568.6087996869601,49.034191714161125 M568.7874036054226,70.58553018959924 L568.3322002595153,65.44674635621084 M568.3322002595153,65.44674635621084 L566.9494932442321,60.023896589083165 M566.9494932442321,60.023896589083165 L564.7085621193613,54.58942059400454 M564.7085621193613,54.58942059400454 L561.7219284248339,49.41641929148591 M561.7219284248339,49.41641929148591 L558.1396875739588,44.76486775267426 M558.1396875739588,44.76486775267426 L554.1419100329192,40.86844380409474 M554.1419100329192,40.86844380409474 L549.9295277343091,37.92273454597603 M529.3576955804227,48.13721329944326 L529.8469548621614,43.54141734706195 M529.8469548621614,43.54141734706195 L531.2600834264771,39.714576352441895 M531.2600834264771,39.714576352441895 L533.5266874311626,36.848794288108365 M533.5266874311626,36.848794288108365 L536.5335535227126,35.0881981617851 M536.5335535227126,35.0881981617851 L540.1302334885216,34.52164706807781 M540.1302334885216,34.52164706807781 L544.1365295814825,35.17814953104187 M544.1365295814825,35.17814953104187 L548.351495923912,37.02529530888455 M549.9295277343091,37.92273454597603 L554.1056012724081,36.07538952964444 M554.1056012724081,36.07538952964444 L558.0670562166366,35.41872100453895 M558.0670562166366,35.41872100453895 L561.6152012556569,35.98514651231403 M561.6152012556569,35.98514651231403 L564.5722498920172,37.74567805429547 M564.5722498920172,37.74567805429547 L566.7902941614288,40.611435559939764 M566.7902941614288,40.611435559939764 L568.1585238298601,44.43831010084057 M568.1585238298601,44.43831010084057 L568.6087996869601,49.034191714161125 M548.351495923912,37.02529530888455 L552.5275922141711,35.178150700856236 M552.5275922141711,35.178150700856236 L556.4891111476428,34.521647703002714 M556.4891111476428,34.521647703002714 L560.037358185673,35.08819558901928 M560.037358185673,35.08819558901928 L562.9945416895639,36.84880026846588 M562.9945416895639,36.84880026846588 L565.2127469026887,39.71457805630416 M565.2127469026887,39.71457805630416 L566.581155494624,43.54141905098794 M566.581155494624,43.54141905098794 L567.0316192648725,48.137215003531935 M529.3576955804227,48.13721329944326 L529.3576955804227,48.13721329944326 M568.7874036054226,70.58553018959924 L568.7874036054226,70.58553018959924" stroke="black"  stroke-width="4"  fill="red"/>
<path d="M273.45039468370356,297.1606681715818 L271.8762168550695,296.2468275207257 M271.62780083022614,217.72336073093265 L271.8762168550695,296.2468275207257 M273.2049954550763,218.6354466119592 L271.62780083022614,217.72336073093265 M273.2049954550763,218.6354466119592 L273.45039468370356,297.1606681715818 M273.45039468370356,297.1606681715818 L277.1774631059093,299.87627653519 M277.1774631059093,299.87627653519 L279.7643521322113,303.00658919154404 M279.7643521322113,303.00658919154404 L281.0809183735226,306.3949469559487 M281.0809183735226,306.3949469559487 L281.0605695411752,309.8715960703428 M281.0605695411752,309.8715960703428 L279.70361390445976,313.2622254379166 M279.70361390445976,313.2622254379166 L277.0775179437212,316.39663389092027 M277.0775179437212,316.39663389092027 L273.31354700542283,319.11734775689786 M271.7261229384994,320.0332352449974 L273.31354700542283,319.11734775689786 M233.7650973163593,320.0332335048335 L238.44732243261657,322.2036431287556 M238.44732243261657,322.2036431287556 L243.85186606744685,323.71429270686923 M243.85186606744685,323.71429270686923 L249.70731467690143,324.48912420848575 M249.70731467690143,324.48912420848575 L255.7194213237513,324.4891329472257 M255.7194213237513,324.4891329472257 L261.5860817342653,323.7142937991291 M261.5860817342653,323.7142937991291 L267.01248896487874,322.203643674805 M267.01248896487874,322.203643674805 L271.7261229384994,320.0332352449974 M232.1909342749133,319.1173494969064 L233.7650973163593,320.0332335048335 M232.37184533435703,297.1606699078634 L228.60547774797251,299.87627708005033 M228.60547774797251,299.87627708005033 L225.9732847954923,303.00659028159794 M225.9732847954923,303.00659028159794 L224.60766787481325,306.3949469559487 M224.60766787481325,306.3949469559487 L224.5777315767203,309.8715960703428 M224.5777315767203,309.8715960703428 L225.88560363836845,313.2622265290627 M225.88560363836845,313.2622265290627 L228.46633640640692,316.39663443666035 M228.46633640640692,316.39663443666035 L232.1909342749133,319.1173494969064 M232.37184533435703,297.1606699078634 L233.9592546162344,296.2468257845991 M233.9592546162344,296.2468257845991 L238.67041523813228,294.0819113705085 M238.67041523813228,294.0819113705085 L244.0906642595479,292.5756260373042 M244.0906642595479,292.5756260373042 L249.9486294905916,291.8031978285246 M249.9486294905916,291.8031978285246 L255.95114866586147,291.80320653941556 M255.95114866586147,291.80320653941556 L261.7979369831442,292.57562712624775 M261.7979369831442,292.57562712624775 L267.19638557893467,294.0819119150605 M267.19638557893467,294.0819119150605 L271.8762168550695,296.2468275207257 M233.63790912208742,217.72335899814 L233.9592546162344,296.2468257845991 M233.63790912208742,217.72335899814 L238.35816428168215,215.56260230865723 M238.35816428168215,215.56260230865723 L243.78885975970968,214.0592103195799 M243.78885975970968,214.0592103195799 L249.6581011611613,213.28826599252676 M249.6581011611613,213.28826599252676 L255.67216306793205,213.28827468668288 M255.67216306793205,213.28827468668288 L261.53018452385936,214.0592114064316 M261.53018452385936,214.0592114064316 L266.9389956475685,215.56260285216325 M266.9389956475685,215.56260285216325 L271.62780083022614,217.72336073093265 M254.0514081969717,207.61296929270173 L258.3019012427868,205.72754162253727 M258.3019012427868,205.72754162253727 L262.3419483567321,205.03935719754833 M262.3419483567321,205.03935719754833 L265.96891210744275,205.58240780253453 M265.96891210744275,205.58240780253453 L269.0010535151327,207.32886906664214 M269.0010535151327,207.32886906664214 L271.28670537744955,210.19055641294585 M271.28670537744955,210.19055641294585 L272.7116767639444,214.0235566554681 M272.7116767639444,214.0235566554681 L273.2049954550763,218.6354466119592 M254.0514081969717,207.61296929270173 L252.4733762593816,206.70039678000217 M252.4733762593816,206.70039678000217 L256.7238889164388,204.8151749186656 M256.7238889164388,204.8151749186656 L260.76399703900785,204.127161139772 M260.76399703900785,204.127161139772 L264.39106011798236,204.67033870396335 M264.39106011798236,204.67033870396335 L267.4233341659191,206.41687691986294 M267.4233341659191,206.41687691986294 L269.7091452990367,209.27858740612595 M269.7091452990367,209.27858740612595 L271.1342945734083,213.1115558616401 M271.1342945734083,213.1115558616401 L271.62780083022614,217.72336073093265 M273.06762053217454,240.5500117655697 L273.31354700542283,319.11734775689786 M273.06762053217454,240.5500117655697 L276.83887094677755,237.83451150866637 M276.83887094677755,237.83451150866637 L279.47005872565205,234.70611113449394 M279.47005872565205,234.70611113449394 L280.82966480200304,231.32198304864335 M280.82966480200304,231.32198304864335 L280.85009206220326,227.85200239171536 M280.85009206220326,227.85200239171536 L279.5310309657198,224.47014591739202 M279.5310309657198,224.47014591739202 L276.9392011736818,221.34584135011738 M276.9392011736818,221.34584135011738 L273.2049954550763,218.6354466119592 M271.47712864624646,241.4641444828104 L273.06762053217454,240.5500117655697 M271.7261229384994,320.0332352449974 L271.47712864624646,241.4641444828104 M271.47712864624646,241.4641444828104 L266.75439052894654,243.6303952031741 M266.75439052894654,243.6303952031741 L261.3175130547108,245.1381519954225 M261.3175130547108,245.1381519954225 L255.4395429397904,245.91150726845075 M255.4395429397904,245.91150726845075 L249.41585662337042,245.9114985464456 M249.41585662337042,245.9114985464456 L243.5491415430934,245.1381509052544 M243.5491415430934,245.1381509052544 L238.13421195875029,243.6303946581706 M238.13421195875029,243.6303946581706 L233.44300378993637,241.46414274598027 M233.7650973163593,320.0332335048335 L233.44300378993637,241.46414274598027 M233.44300378993637,241.46414274598027 L231.86582403781549,240.55001350224438 M232.1909342749133,319.1173494969064 L231.86582403781549,240.55001350224438 M232.37184533435703,297.1606699078634 L232.04743210672999,218.63544834490688 M232.04743210672999,218.63544834490688 L228.27377588175486,221.34584189393178 M228.27377588175486,221.34584189393178 L225.63646767824946,224.47014700535408 M225.63646767824946,224.47014700535408 L224.26816698001872,227.85200239171536 M224.26816698001872,227.85200239171536 L224.23811531604915,231.32198304864335 M224.23811531604915,231.32198304864335 L225.5484487046709,234.7061122235483 M225.5484487046709,234.7061122235483 L228.13409846271614,237.83451205336053 M228.13409846271614,237.83451205336053 L231.86582403781549,240.55001350224438 M232.04743210672999,218.63544834490688 L233.63790912208742,217.72335899814 M252.4733762593816,206.70039678000217 L248.26238490107434,204.8151737291281 M248.26238490107434,204.8151737291281 L244.26781072242383,204.12716049414388 M244.26781072242383,204.12716049414388 L240.69000833277,204.6703413200923 M240.69000833277,204.6703413200923 L237.70822386219763,206.41687083872569 M237.70822386219763,206.41687083872569 L235.47164221943737,209.27858567355537 M235.47164221943737,209.27858567355537 L234.09196634620938,213.1115541290091 M234.09196634620938,213.1115541290091 L233.63790912208742,217.72335899814 M252.4733762593816,206.70039678000217 L252.4733762593816,206.70039678000217 M254.0514081969717,207.61296929270173 L258.26776616224527,210.60142060227633 M258.26776616224527,210.60142060227633 L262.2772662789371,214.5431006257628 M262.2772662789371,214.5431006257628 L265.8783853186493,219.2401469656876 M265.8783853186493,219.2401469656876 L268.8901011654806,224.4565918303598 M268.8901011654806,224.4565918303598 L271.16105506666673,229.93027199854822 M271.16105506666673,229.93027199854822 L272.57721503754294,235.386111997125 M272.57721503754294,235.386111997125 L273.06762053217454,240.5500117655697 M254.0514081969717,207.61296929270173 L254.0514081969717,207.61296929270173 M252.4600647181659,208.52562700765372 L254.0514081969717,207.61296929270173 M252.4600647181659,208.52562700765372 L250.88203337640215,207.6129727604465 M250.88203337640215,207.6129727604465 L252.4733762593816,206.70039678000217 M252.4600647181659,208.52562700765372 L256.67644265250806,211.51430901091896 M256.67644265250806,211.51430901091896 L260.6860048338372,215.45623300332397 M260.6860048338372,215.45623300332397 L264.28722490309315,220.1535243213678 M264.28722490309315,220.1535243213678 L267.29907565139126,225.37020284223428 M267.29907565139126,225.37020284223428 L269.5701915311144,230.84409357576124 M269.5701915311144,230.84409357576124 L270.9865324082709,236.30011044334424 M270.9865324082709,236.30011044334424 L271.47712864624646,241.4641444828104 M252.4600647181659,208.52562700765372 L252.4600647181659,208.52562700765372 M252.4600647181659,208.52562700765372 L248.21215683650416,211.51430782059924 M248.21215683650416,211.51430782059924 L244.18064676498395,215.4562323569777 M244.18064676498395,215.4562323569777 L240.56816406828585,220.1535269414739 M240.56816406828585,220.1535269414739 L237.55632850612952,225.37019674978012 M237.55632850612952,225.37019674978012 L235.29646195048477,230.84409183952226 M235.29646195048477,230.84409183952226 L233.90206802279343,236.30010870676927 M233.90206802279343,236.30010870676927 L233.44300378993637,241.46414274598027 M250.88203337640215,207.6129727604465 L246.63414828784556,210.60142288068437 M246.63414828784556,210.60142288068437 L242.6027022465455,214.54310344902268 M242.6027022465455,214.54310344902268 L238.9903215873652,219.24015305603814 M238.9903215873652,219.24015305603814 L235.9786209261567,224.45658920981816 M235.9786209261567,224.45658920981816 L233.7189153400825,229.93027373463173 M233.7189153400825,229.93027373463173 L232.3247003521652,235.38611373354445 M232.3247003521652,235.38611373354445 L231.86582403781549,240.55001350224438 M250.88203337640215,207.6129727604465 L246.67106516900478,205.72754389985585 M246.67106516900478,205.72754389985585 L242.6765560764242,205.03936001817652 M242.6765560764242,205.03936001817652 L239.0988574252077,205.5824138847293 M239.0988574252077,205.5824138847293 L236.1172101163046,207.3288664504998 M236.1172101163046,207.3288664504998 L233.8807921503043,210.19055814567156 M233.8807921503043,210.19055814567156 L232.50129823484065,214.02355838825406 M232.50129823484065,214.02355838825406 L232.04743210672999,218.63544834490688 M250.88203337640215,207.6129727604465 L250.88203337640215,207.6129727604465" stroke="black"  stroke-width="4"  fill="red"/>
<path d="M239.7356586199409,372.7458748552151 L239.5913584547862,336.2905707126808 M288.3869409834249,365.186855948788 L288.28620301339566,328.73821660059997 M239.7356586199409,372.7458748552151 L288.3869409834249,365.186855948788 M239.5913584547862,336.2905707126808 L288.28620301339566,328.73821660059997 M301.54372377327144,337.0252511771718 L301.4548740823558,300.60148570903715 M288.3869409834249,365.186855948788 L301.54372377327144,337.0252511771718 M288.28620301339566,328.73821660059997 L301.4548740823558,300.60148570903715 M266.15612026240706,316.45844144650437 L266.0357876163077,280.0528853190983 M301.54372377327144,337.0252511771718 L266.15612026240706,316.45844144650437 M301.4548740823558,300.60148570903715 L266.0357876163077,280.0528853190983 M217.61214329289498,323.9816305721808 L217.44844051022963,287.56940933134535 M266.15612026240706,316.45844144650437 L217.61214329289498,323.9816305721808 M266.0357876163077,280.0528853190983 L217.44844051022963,287.56940933134535 M204.34857239230786,352.10739689181156 L204.1727906596973,315.67030145967 M217.61214329289498,323.9816305721808 L204.34857239230786,352.10739689181156 M217.44844051022963,287.56940933134535 L204.1727906596973,315.67030145967 M204.34857239230786,352.10739689181156 L239.7356586199409,372.7458748552151 M204.1727906596973,315.67030145967 L239.5913584547862,336.2905707126808" stroke="black"  stroke-width="4"  fill="red"/>
<path d="M535.1522777166293,202.01628070250024 L535.2712692546155,165.71272101637084 M583.2916313526378,194.5823445560543 L583.4532727264038,158.2854497741289 M535.1522777166293,202.01628070250024 L583.2916313526378,194.5823445560543 M535.2712692546155,165.71272101637084 L583.4532727264038,158.2854497741289 M595.9382319987662,166.88636371777545 L596.1108539779608,130.61434212937786 M583.2916313526378,194.5823445560543 L595.9382319987662,166.88636371777545 M583.4532727264038,158.2854497741289 L596.1108539779608,130.61434212937786 M560.5511279049798,146.65920377365597 L560.6922682530515,110.4053899558179 M595.9382319987662,166.88636371777545 L560.5511279049798,146.65920377365597 M596.1108539779608,130.61434212937786 L560.6922682530515,110.4053899558179 M512.5168143618419,154.05818623392287 L512.6154908541946,117.79770798565869 M560.5511279049798,146.65920377365597 L512.5168143618419,154.05818623392287 M560.6922682530515,110.4053899558179 L512.6154908541946,117.79770798565869 M499.7646692325397,181.71922203301392 L499.85217779762013,145.43387105738805 M512.5168143618419,154.05818623392287 L499.7646692325397,181.71922203301392 M512.6154908541946,117.79770798565869 L499.85217779762013,145.43387105738805 M499.7646692325397,181.71922203301392 L535.1522777166293,202.01628070250024 M499.85217779762013,145.43387105738805 L535.2712692546155,165.71272101637084" stroke="black"  stroke-width="4"  fill="red"/></svg>